<?xml version="1.0" encoding="UTF-8"?>
<!DOCTYPE svg PUBLIC "-//W3C//DTD SVG 1.1//EN" "http://www.w3.org/Graphics/SVG/1.1/DTD/svg11.dtd">
<svg xmlns="http://www.w3.org/2000/svg" version="1.1" width="24px" height="24px" style="shape-rendering:geometricPrecision; text-rendering:geometricPrecision; image-rendering:optimizeQuality; fill-rule:evenodd; clip-rule:evenodd" xmlns:xlink="http://www.w3.org/1999/xlink">
<g><path d="M 1.5,-0.5 C 7.83333,-0.5 14.1667,-0.5 20.5,-0.5C 21.5,0.5 22.5,1.5 23.5,2.5C 23.5,8.16667 23.5,13.8333 23.5,19.5C 22.5,21.1667 21.1667,22.5 19.5,23.5C 13.8333,23.5 8.16667,23.5 2.5,23.5C 1.5,22.5 0.5,21.5 -0.5,20.5C -0.5,14.1667 -0.5,7.83333 -0.5,1.5C 0.5,1.16667 1.16667,0.5 1.5,-0.5 Z M 3.5,3.5 C 4.5,3.5 5.5,3.5 6.5,3.5C 6.33521,7.86379 5.00188,8.36379 2.5,5C 3.05596,4.61742 3.38929,4.11742 3.5,3.5 Z M 3.5,8.5 C 4.5,8.5 5.5,8.5 6.5,8.5C 6.5,12.1667 6.5,15.8333 6.5,19.5C 5.5,19.5 4.5,19.5 3.5,19.5C 3.5,15.8333 3.5,12.1667 3.5,8.5 Z M 8.5,8.5 C 11.4887,9.63545 14.4887,9.80212 17.5,9C 18,9.5 18.5,10 19,10.5C 19.498,13.4816 19.6646,16.4816 19.5,19.5C 18.1667,19.5 16.8333,19.5 15.5,19.5C 15.5,16.8333 15.5,14.1667 15.5,11.5C 14.5,11.5 13.5,11.5 12.5,11.5C 12.5,14.1667 12.5,16.8333 12.5,19.5C 11.1667,19.5 9.83333,19.5 8.5,19.5C 8.5,15.8333 8.5,12.1667 8.5,8.5 Z"/></g>
</svg>
