<?xml version="1.0" encoding="UTF-8"?>
<!DOCTYPE svg PUBLIC "-//W3C//DTD SVG 1.1//EN" "http://www.w3.org/Graphics/SVG/1.1/DTD/svg11.dtd">
<svg xmlns="http://www.w3.org/2000/svg" version="1.1" width="24px" height="24px" style="shape-rendering:geometricPrecision; text-rendering:geometricPrecision; image-rendering:optimizeQuality; fill-rule:evenodd; clip-rule:evenodd" xmlns:xlink="http://www.w3.org/1999/xlink">
<g><path d="M 4.5,-0.5 C 9.16667,-0.5 13.8333,-0.5 18.5,-0.5C 20.5,0.833333 22.1667,2.5 23.5,4.5C 23.5,9.16667 23.5,13.8333 23.5,18.5C 22.1667,20.5 20.5,22.1667 18.5,23.5C 13.8333,23.5 9.16667,23.5 4.5,23.5C 2.5,22.1667 0.833333,20.5 -0.5,18.5C -0.5,13.8333 -0.5,9.16667 -0.5,4.5C 0.833333,2.5 2.5,0.833333 4.5,-0.5 Z M 4.5,1.5 C 9.17853,1.33418 13.8452,1.50085 18.5,2C 19.3081,2.30762 19.9747,2.80762 20.5,3.5C 25.7185,19.1126 20.3852,24.946 4.5,21C 3.69194,20.6924 3.02527,20.1924 2.5,19.5C 1.38569,14.5544 1.21902,9.55441 2,4.5C 2.69794,3.30943 3.53128,2.30943 4.5,1.5 Z M 9.5,7.5 C 15.4877,7.66395 16.821,10.164 13.5,15C 7.40339,15.1475 6.07006,12.6475 9.5,7.5 Z"/></g>
<g><path d="M 17.5,3.5 C 19.6246,4.36758 19.7913,5.36758 18,6.5C 16.3167,5.82352 16.1501,4.82352 17.5,3.5 Z"/></g>
<g><path d="M 9.5,5.5 C 15.3296,5.16052 17.8296,7.82718 17,13.5C 13.3333,18.8333 9.66667,18.8333 6,13.5C 5.27926,9.94632 6.44593,7.27965 9.5,5.5 Z M 9.5,7.5 C 6.07006,12.6475 7.40339,15.1475 13.5,15C 16.821,10.164 15.4877,7.66395 9.5,7.5 Z"/></g>
</svg>
